<!DOCTYPE svg PUBLIC "-//W3C//DTD SVG 20010904//EN" "http://www.w3.org/TR/2001/REC-SVG-20010904/DTD/svg10.dtd">
<svg version="1.0" xmlns="http://www.w3.org/2000/svg" width="1600px" height="1600px" viewBox="0 0 16000 16000" preserveAspectRatio="xMidYMid meet">
<g id="layer101" fill="#000000" stroke="none">
 <path d="M4872 9737 l-172 -172 0 -1196 0 -1196 -191 -192 -190 -191 -225 0 -224 0 0 1555 0 1555 -322 0 -323 0 -170 -169 -170 -170 3 -1188 2 -1188 -197 -197 -198 -198 -227 0 -228 0 0 1555 0 1555 -321 0 -321 0 -169 -171 -169 -170 0 -1654 0 -1654 -170 -168 c-94 -92 -170 -171 -170 -175 0 -5 380 -8 844 -8 l844 0 236 236 236 237 0 -237 0 -236 677 0 677 0 233 232 233 232 0 -222 0 -222 846 -2 846 -3 -173 -172 -173 -173 383 0 383 0 234 234 234 233 0 382 0 381 -795 0 -795 0 0 285 0 285 362 0 363 0 432 432 c238 238 433 439 433 445 0 10 -164 13 -795 13 l-795 0 0 825 0 825 -323 0 -322 0 -173 -173z"/>
 <path d="M7630 8892 l0 -667 108 -108 107 -107 263 0 262 0 0 150 0 150 -205 0 -205 0 0 145 0 145 190 0 190 0 0 150 0 150 -190 0 -190 0 0 330 0 330 -165 0 -165 0 0 -668z"/>
 <path d="M8610 8907 l0 -652 123 -123 122 -122 338 0 337 0 0 775 0 775 -165 0 -165 0 0 -255 0 -255 -130 0 -130 0 0 255 0 255 -165 0 -165 0 0 -653z m590 -377 l0 -220 -130 0 -130 0 0 220 0 220 130 0 130 0 0 -220z"/>
 <path d="M9780 8892 l0 -668 73 -66 c39 -37 92 -85 115 -107 l44 -41 339 0 339 0 0 295 0 295 -160 0 -160 0 0 -145 0 -145 -130 0 -130 0 0 475 0 475 130 0 130 0 0 -95 0 -95 160 0 160 0 0 143 0 142 -103 103 -102 102 -353 0 -352 0 0 -668z"/>
 <path d="M11230 8935 l0 -625 -155 0 -155 0 0 -150 0 -150 465 0 465 0 0 150 0 150 -145 0 -145 0 0 625 0 625 -165 0 -165 0 0 -625z"/>
 <path d="M12080 8785 l0 -775 470 0 470 0 0 775 0 775 -470 0 -470 0 0 -775z m610 0 l0 -475 -140 0 -140 0 0 475 0 475 140 0 140 0 0 -475z"/>
 <path d="M13260 8893 l1 -668 117 -107 117 -107 333 -1 332 0 0 495 0 495 -80 0 c-92 0 -92 0 -59 82 12 29 25 64 29 78 5 14 29 81 55 150 50 137 85 236 85 245 0 3 -75 4 -167 3 l-167 -3 -12 -40 c-7 -22 -42 -125 -79 -230 -37 -104 -73 -211 -82 -237 -14 -47 -16 -48 -54 -48 l-39 0 0 280 0 280 -165 0 -165 0 0 -667z m570 -383 l0 -200 -120 0 -120 0 0 200 0 200 120 0 120 0 0 -200z"/>
 <path d="M14485 9543 c8 -19 65 -188 146 -429 l51 -150 -42 -120 c-23 -65 -46 -132 -50 -149 -10 -33 -192 -565 -207 -605 -6 -14 -13 -37 -17 -53 l-7 -27 173 2 172 3 48 155 c78 251 92 290 99 282 4 -4 40 -105 80 -224 l73 -218 173 0 c95 0 173 1 173 3 0 1 -74 223 -165 492 -91 270 -204 605 -251 745 -47 140 -90 267 -96 283 l-10 27 -175 0 c-163 0 -175 -1 -168 -17z"/>
 <path d="M7833 7563 c-91 -75 -149 -136 -169 -175 -15 -29 -16 -60 -11 -288 4 -140 14 -329 22 -420 9 -91 20 -284 24 -430 7 -220 6 -268 -5 -281 -20 -23 -17 -69 6 -94 l21 -22 62 19 c86 26 234 101 282 143 148 130 156 138 190 208 19 39 35 74 35 78 0 3 12 32 26 63 l25 56 56 -68 c31 -37 99 -111 152 -165 l96 -98 51 7 c59 7 59 8 113 -86 44 -77 45 -77 180 -27 l86 32 36 73 c53 109 63 173 44 307 -43 311 -64 505 -70 640 -4 116 -13 180 -37 284 -28 119 -30 140 -20 178 26 97 10 122 -77 123 l-55 0 -104 -104 c-76 -77 -103 -109 -99 -123 3 -10 11 -74 17 -143 15 -171 57 -532 76 -660 9 -58 14 -125 12 -150 l-3 -45 -45 59 c-25 32 -88 113 -141 180 -53 67 -100 132 -104 146 -5 14 -7 56 -6 94 l2 68 -58 -5 c-75 -7 -161 -32 -193 -55 -45 -34 -95 -140 -151 -320 -29 -95 -33 -102 -48 -87 -14 14 -16 73 -16 533 0 481 -1 519 -18 550 -17 32 -67 62 -102 62 -8 0 -45 -26 -82 -57z"/>
 <path d="M10687 7596 c-31 -13 -67 -31 -80 -40 -12 -9 -38 -28 -57 -41 -43 -30 -43 -30 -85 -85 -32 -43 -35 -54 -56 -206 l-22 -161 -111 2 c-79 2 -122 -2 -149 -13 -35 -13 -39 -13 -52 4 -32 42 -174 344 -195 416 -32 108 -43 118 -135 118 -41 0 -87 -5 -102 -11 -81 -34 -114 -51 -119 -62 -13 -36 82 -338 128 -407 16 -24 95 -187 151 -313 15 -32 29 -74 32 -95 12 -69 27 -107 100 -257 137 -282 158 -329 161 -363 4 -45 63 -171 85 -183 25 -13 91 -11 189 6 141 25 186 43 229 91 41 47 58 107 81 284 7 47 18 128 27 180 8 52 19 124 24 160 28 211 67 421 84 446 9 14 21 83 30 176 8 84 25 192 37 241 l21 87 -23 25 c-32 34 -112 34 -193 1z m-317 -796 c0 -33 -7 -76 -15 -96 -8 -19 -12 -41 -8 -49 7 -21 -15 -45 -34 -38 -13 5 -15 1 -9 -22 6 -25 5 -27 -8 -16 -24 20 -76 122 -76 148 0 13 -9 41 -20 63 -11 22 -20 44 -20 49 0 6 30 12 68 14 37 2 79 4 95 5 27 2 27 1 27 -58z"/>
 <path d="M11480 7611 c-8 -5 -28 -15 -43 -22 -16 -7 -42 -32 -59 -55 -16 -23 -40 -46 -54 -53 -13 -6 -24 -17 -24 -25 0 -8 -10 -32 -22 -53 -21 -35 -23 -49 -22 -198 2 -158 14 -273 52 -490 11 -60 27 -159 36 -220 9 -60 21 -144 27 -185 9 -63 27 -254 31 -325 0 -11 -2 -33 -6 -50 -11 -48 9 -64 71 -58 41 4 61 13 94 41 72 62 164 211 173 281 3 26 14 69 24 96 12 34 16 59 11 78 -9 33 -3 53 16 61 16 6 148 -130 271 -277 46 -56 108 -129 136 -161 29 -33 58 -72 65 -88 11 -27 15 -28 55 -22 54 8 87 30 115 80 29 50 73 183 73 218 0 21 -29 57 -122 157 -68 71 -130 142 -138 157 -48 84 -74 122 -115 161 -55 55 -57 77 -11 145 19 28 44 74 56 101 42 94 81 170 115 225 91 147 149 259 190 367 38 99 34 104 -99 101 -56 -1 -108 2 -115 6 -7 5 -38 5 -68 1 -53 -6 -60 -11 -132 -83 -111 -111 -195 -259 -277 -482 -15 -41 -38 -92 -51 -112 -12 -21 -23 -43 -23 -49 0 -6 -9 -22 -20 -36 l-20 -26 0 95 c0 59 6 112 15 138 20 57 19 73 -9 139 -14 31 -39 103 -57 160 -27 89 -31 113 -25 167 6 56 4 66 -14 84 -21 21 -72 26 -100 11z"/>
 <path d="M13126 7585 c-32 -19 -60 -35 -62 -35 -3 0 -22 -11 -44 -25 -22 -14 -44 -25 -49 -25 -6 0 -27 -11 -47 -25 -20 -14 -46 -25 -57 -25 -18 0 -19 -5 -13 -62 3 -35 13 -182 21 -328 15 -263 29 -412 41 -432 4 -6 13 -87 20 -182 8 -94 23 -211 33 -261 27 -121 26 -143 -5 -176 -31 -32 -27 -42 27 -70 33 -16 51 -19 97 -13 36 4 96 0 161 -10 112 -18 188 -14 386 21 104 18 124 27 184 81 91 84 130 182 79 196 -13 3 -75 3 -138 0 -99 -6 -126 -4 -193 15 -53 14 -106 21 -170 21 l-92 0 -26 148 c-15 81 -25 149 -23 151 3 4 65 -7 196 -35 115 -24 145 -20 222 31 38 25 71 45 73 45 7 0 86 64 106 85 28 31 47 81 47 126 l0 41 -57 -8 c-95 -14 -173 -9 -238 15 -34 13 -93 25 -135 27 -80 5 -75 7 -183 -69 -14 -10 -31 -16 -36 -13 -5 4 -15 31 -21 62 -15 72 -19 319 -5 333 7 7 34 1 85 -20 107 -44 189 -69 232 -69 57 0 143 37 210 91 34 27 65 49 69 49 14 0 46 55 53 92 10 54 -8 67 -88 61 -54 -5 -69 -2 -93 15 -28 19 -87 46 -248 113 -44 18 -89 40 -100 50 -70 59 -137 64 -219 14z"/>
 <path d="M15070 7604 c-19 -9 -46 -25 -58 -37 -46 -43 -139 -194 -204 -332 -65 -138 -75 -160 -118 -260 -20 -46 -23 -48 -31 -27 -5 12 -13 61 -19 109 -6 47 -18 120 -26 162 -8 42 -19 126 -23 187 -6 91 -11 116 -30 142 -12 18 -31 32 -41 32 -21 0 -67 -43 -110 -100 -14 -19 -49 -62 -77 -96 -48 -56 -53 -66 -53 -110 0 -27 9 -98 20 -159 31 -172 128 -783 135 -855 3 -36 11 -84 17 -106 9 -39 8 -45 -21 -84 -17 -24 -31 -49 -31 -57 0 -21 50 -63 75 -63 13 0 60 -11 106 -24 113 -33 233 -49 325 -44 l76 3 104 107 c58 59 111 123 119 142 17 40 45 235 45 311 0 83 -53 181 -150 274 -44 42 -80 82 -80 88 0 6 16 34 35 62 19 28 41 67 49 88 8 21 28 75 45 119 38 102 112 258 145 307 38 55 58 96 51 106 -2 5 -38 25 -77 44 -47 22 -77 43 -83 58 -12 30 -64 35 -115 13z m-216 -1182 c85 -76 179 -189 170 -204 -4 -5 -23 -7 -43 -4 -20 3 -65 10 -101 15 -36 5 -86 18 -112 29 l-48 21 7 48 c9 61 9 86 -1 146 l-7 48 30 -16 c17 -8 64 -46 105 -83z"/>
 <path d="M1000 5830 c-12 -8 -11 -10 8 -10 12 0 22 5 22 10 0 13 -11 13 -30 0z"/>
 </g>
<g id="layer102" fill="#5a5a5a" stroke="none">
 <path d="M4870 9735 l-175 -175 323 0 322 0 2 -822 3 -823 805 -3 805 -2 162 162 c90 90 163 168 163 175 0 10 -162 13 -795 13 l-795 0 0 825 0 825 -323 0 -322 0 -175 -175z"/>
 <path d="M1228 9729 c-93 -94 -168 -172 -168 -175 0 -2 145 -5 323 -6 l322 -3 2 -1540 3 -1540 232 -3 233 -2 165 165 165 165 -233 0 -232 0 0 1555 0 1555 -322 -1 -323 0 -167 -170z"/>
 <path d="M3053 9728 c-95 -94 -173 -173 -173 -175 0 -2 146 -3 325 -3 l325 0 0 -1545 0 -1545 233 0 232 0 165 165 165 165 -228 0 -227 0 0 1555 0 1555 -322 0 -323 0 -172 -172z"/>
 <path d="M7833 7563 c-91 -75 -149 -136 -169 -175 -15 -29 -16 -60 -11 -288 4 -140 14 -329 22 -420 9 -91 20 -284 24 -430 7 -220 6 -268 -5 -281 -20 -23 -17 -69 6 -94 l21 -22 62 19 c86 26 234 101 282 143 148 130 156 138 190 208 19 39 35 74 35 78 0 3 12 32 26 63 l25 56 56 -68 c31 -37 99 -111 152 -165 l96 -98 51 7 c59 7 59 8 113 -86 44 -77 45 -77 180 -27 l86 32 36 73 c53 109 63 173 44 307 -43 311 -64 505 -70 640 -4 116 -13 180 -37 284 -28 119 -30 140 -20 178 26 97 10 122 -77 123 l-55 0 -104 -104 c-76 -77 -103 -109 -99 -123 3 -10 11 -74 17 -143 15 -171 57 -532 76 -660 9 -58 14 -125 12 -150 l-3 -45 -45 59 c-25 32 -88 113 -141 180 -53 67 -100 132 -104 146 -5 14 -7 56 -6 94 l2 68 -58 -5 c-75 -7 -161 -32 -193 -55 -45 -34 -95 -140 -151 -320 -29 -95 -33 -102 -48 -87 -14 14 -16 73 -16 533 0 481 -1 519 -18 550 -17 32 -67 62 -102 62 -8 0 -45 -26 -82 -57z"/>
 <path d="M10687 7596 c-31 -13 -67 -31 -80 -40 -12 -9 -38 -28 -57 -41 -43 -30 -43 -30 -85 -85 -32 -43 -35 -54 -56 -206 l-22 -161 -111 2 c-79 2 -122 -2 -149 -13 -35 -13 -39 -13 -52 4 -32 42 -174 344 -195 416 -32 108 -43 118 -135 118 -41 0 -87 -5 -102 -11 -81 -34 -114 -51 -119 -62 -13 -36 82 -338 128 -407 16 -24 95 -187 151 -313 15 -32 29 -74 32 -95 12 -69 27 -107 100 -257 137 -282 158 -329 161 -363 4 -45 63 -171 85 -183 25 -13 91 -11 189 6 141 25 186 43 229 91 41 47 58 107 81 284 7 47 18 128 27 180 8 52 19 124 24 160 28 211 67 421 84 446 9 14 21 83 30 176 8 84 25 192 37 241 l21 87 -23 25 c-32 34 -112 34 -193 1z m-317 -796 c0 -33 -7 -76 -15 -96 -8 -19 -12 -41 -8 -49 7 -21 -15 -45 -34 -38 -13 5 -15 1 -9 -22 6 -25 5 -27 -8 -16 -24 20 -76 122 -76 148 0 13 -9 41 -20 63 -11 22 -20 44 -20 49 0 6 30 12 68 14 37 2 79 4 95 5 27 2 27 1 27 -58z"/>
 <path d="M11480 7611 c-8 -5 -28 -15 -43 -22 -16 -7 -42 -32 -59 -55 -16 -23 -40 -46 -54 -53 -13 -6 -24 -17 -24 -25 0 -8 -10 -32 -22 -53 -21 -35 -23 -49 -22 -198 2 -158 14 -273 52 -490 11 -60 27 -159 36 -220 9 -60 21 -144 27 -185 9 -63 27 -254 31 -325 0 -11 -2 -33 -6 -50 -11 -48 9 -64 71 -58 41 4 61 13 94 41 72 62 164 211 173 281 3 26 14 69 24 96 12 34 16 59 11 78 -9 33 -3 53 16 61 16 6 148 -130 271 -277 46 -56 108 -129 136 -161 29 -33 58 -72 65 -88 11 -27 15 -28 55 -22 54 8 87 30 115 80 29 50 73 183 73 218 0 21 -29 57 -122 157 -68 71 -130 142 -138 157 -48 84 -74 122 -115 161 -55 55 -57 77 -11 145 19 28 44 74 56 101 42 94 81 170 115 225 91 147 149 259 190 367 38 99 34 104 -99 101 -56 -1 -108 2 -115 6 -7 5 -38 5 -68 1 -53 -6 -60 -11 -132 -83 -111 -111 -195 -259 -277 -482 -15 -41 -38 -92 -51 -112 -12 -21 -23 -43 -23 -49 0 -6 -9 -22 -20 -36 l-20 -26 0 95 c0 59 6 112 15 138 20 57 19 73 -9 139 -14 31 -39 103 -57 160 -27 89 -31 113 -25 167 6 56 4 66 -14 84 -21 21 -72 26 -100 11z"/>
 <path d="M13126 7585 c-32 -19 -60 -35 -62 -35 -3 0 -22 -11 -44 -25 -22 -14 -44 -25 -49 -25 -6 0 -27 -11 -47 -25 -20 -14 -46 -25 -57 -25 -18 0 -19 -5 -13 -62 3 -35 13 -182 21 -328 15 -263 29 -412 41 -432 4 -6 13 -87 20 -182 8 -94 23 -211 33 -261 27 -121 26 -143 -5 -176 -31 -32 -27 -42 27 -70 33 -16 51 -19 97 -13 36 4 96 0 161 -10 112 -18 188 -14 386 21 104 18 124 27 184 81 91 84 130 182 79 196 -13 3 -75 3 -138 0 -99 -6 -126 -4 -193 15 -53 14 -106 21 -170 21 l-92 0 -26 148 c-15 81 -25 149 -23 151 3 4 65 -7 196 -35 115 -24 145 -20 222 31 38 25 71 45 73 45 7 0 86 64 106 85 28 31 47 81 47 126 l0 41 -57 -8 c-95 -14 -173 -9 -238 15 -34 13 -93 25 -135 27 -80 5 -75 7 -183 -69 -14 -10 -31 -16 -36 -13 -5 4 -15 31 -21 62 -15 72 -19 319 -5 333 7 7 34 1 85 -20 107 -44 189 -69 232 -69 57 0 143 37 210 91 34 27 65 49 69 49 14 0 46 55 53 92 10 54 -8 67 -88 61 -54 -5 -69 -2 -93 15 -28 19 -87 46 -248 113 -44 18 -89 40 -100 50 -70 59 -137 64 -219 14z"/>
 <path d="M15070 7604 c-19 -9 -46 -25 -58 -37 -46 -43 -139 -194 -204 -332 -65 -138 -75 -160 -118 -260 -20 -46 -23 -48 -31 -27 -5 12 -13 61 -19 109 -6 47 -18 120 -26 162 -8 42 -19 126 -23 187 -6 91 -11 116 -30 142 -12 18 -31 32 -41 32 -21 0 -67 -43 -110 -100 -14 -19 -49 -62 -77 -96 -48 -56 -53 -66 -53 -110 0 -27 9 -98 20 -159 31 -172 128 -783 135 -855 3 -36 11 -84 17 -106 9 -39 8 -45 -21 -84 -17 -24 -31 -49 -31 -57 0 -21 50 -63 75 -63 13 0 60 -11 106 -24 113 -33 233 -49 325 -44 l76 3 104 107 c58 59 111 123 119 142 17 40 45 235 45 311 0 83 -53 181 -150 274 -44 42 -80 82 -80 88 0 6 16 34 35 62 19 28 41 67 49 88 8 21 28 75 45 119 38 102 112 258 145 307 38 55 58 96 51 106 -2 5 -38 25 -77 44 -47 22 -77 43 -83 58 -12 30 -64 35 -115 13z m-216 -1182 c85 -76 179 -189 170 -204 -4 -5 -23 -7 -43 -4 -20 3 -65 10 -101 15 -36 5 -86 18 -112 29 l-48 21 7 48 c9 61 9 86 -1 146 l-7 48 30 -16 c17 -8 64 -46 105 -83z"/>
 <path d="M5340 6920 l0 -450 808 0 807 0 -452 -450 -452 -450 380 0 381 0 234 234 234 234 0 381 0 381 -795 0 -795 0 0 285 0 285 -175 0 -175 0 0 -450z"/>
 </g>
<g id="layer103" fill="#bb8800" stroke="none">
 <path d="M4877 9742 c-92 -92 -167 -171 -167 -175 0 -4 142 -7 315 -7 l315 0 2 -822 3 -823 805 -3 805 -2 162 162 c90 90 163 168 163 175 0 10 -162 13 -795 13 l-795 0 0 825 0 825 -323 0 -322 0 -168 -168z"/>
 <path d="M1228 9729 c-93 -94 -168 -172 -168 -175 0 -2 145 -5 323 -6 l322 -3 2 -1540 3 -1540 232 -3 233 -2 165 165 165 165 -233 0 -232 0 0 1555 0 1555 -322 -1 -323 0 -167 -170z"/>
 <path d="M3053 9728 c-95 -94 -173 -173 -173 -175 0 -2 146 -3 325 -3 l325 0 0 -1545 0 -1545 233 0 232 0 165 165 165 165 -228 0 -227 0 0 1555 0 1555 -322 0 -323 0 -172 -172z"/>
 <path d="M7833 7563 c-91 -75 -149 -136 -169 -175 -15 -29 -16 -60 -11 -288 4 -140 14 -329 22 -420 9 -91 20 -284 24 -430 7 -220 6 -268 -5 -281 -20 -23 -17 -69 6 -94 l21 -22 62 19 c86 26 234 101 282 143 148 130 156 138 190 208 19 39 35 74 35 78 0 3 12 32 26 63 l25 56 56 -68 c31 -37 99 -111 152 -165 l96 -98 51 7 c59 7 59 8 113 -86 44 -77 45 -77 180 -27 l86 32 36 73 c53 109 63 173 44 307 -43 311 -64 505 -70 640 -4 116 -13 180 -37 284 -28 119 -30 140 -20 178 26 97 10 122 -77 123 l-55 0 -104 -104 c-76 -77 -103 -109 -99 -123 3 -10 11 -74 17 -143 15 -171 57 -532 76 -660 9 -58 14 -125 12 -150 l-3 -45 -45 59 c-25 32 -88 113 -141 180 -53 67 -100 132 -104 146 -5 14 -7 56 -6 94 l2 68 -58 -5 c-75 -7 -161 -32 -193 -55 -45 -34 -95 -140 -151 -320 -29 -95 -33 -102 -48 -87 -14 14 -16 73 -16 533 0 481 -1 519 -18 550 -17 32 -67 62 -102 62 -8 0 -45 -26 -82 -57z"/>
 <path d="M10687 7596 c-31 -13 -67 -31 -80 -40 -12 -9 -38 -28 -57 -41 -43 -30 -43 -30 -85 -85 -32 -43 -35 -54 -56 -206 l-22 -161 -111 2 c-79 2 -122 -2 -149 -13 -35 -13 -39 -13 -52 4 -32 42 -174 344 -195 416 -32 108 -43 118 -135 118 -41 0 -87 -5 -102 -11 -81 -34 -114 -51 -119 -62 -13 -36 82 -338 128 -407 16 -24 95 -187 151 -313 15 -32 29 -74 32 -95 12 -69 27 -107 100 -257 137 -282 158 -329 161 -363 4 -45 63 -171 85 -183 25 -13 91 -11 189 6 141 25 186 43 229 91 41 47 58 107 81 284 7 47 18 128 27 180 8 52 19 124 24 160 28 211 67 421 84 446 9 14 21 83 30 176 8 84 25 192 37 241 l21 87 -23 25 c-32 34 -112 34 -193 1z m-317 -796 c0 -33 -7 -76 -15 -96 -8 -19 -12 -41 -8 -49 7 -21 -15 -45 -34 -38 -13 5 -15 1 -9 -22 6 -25 5 -27 -8 -16 -24 20 -76 122 -76 148 0 13 -9 41 -20 63 -11 22 -20 44 -20 49 0 6 30 12 68 14 37 2 79 4 95 5 27 2 27 1 27 -58z"/>
 <path d="M11480 7611 c-8 -5 -28 -15 -43 -22 -16 -7 -42 -32 -59 -55 -16 -23 -40 -46 -54 -53 -13 -6 -24 -17 -24 -25 0 -8 -10 -32 -22 -53 -21 -35 -23 -49 -22 -198 2 -158 14 -273 52 -490 11 -60 27 -159 36 -220 9 -60 21 -144 27 -185 9 -63 27 -254 31 -325 0 -11 -2 -33 -6 -50 -11 -48 9 -64 71 -58 41 4 61 13 94 41 72 62 164 211 173 281 3 26 14 69 24 96 12 34 16 59 11 78 -9 33 -3 53 16 61 16 6 148 -130 271 -277 46 -56 108 -129 136 -161 29 -33 58 -72 65 -88 11 -27 15 -28 55 -22 54 8 87 30 115 80 29 50 73 183 73 218 0 21 -29 57 -122 157 -68 71 -130 142 -138 157 -48 84 -74 122 -115 161 -55 55 -57 77 -11 145 19 28 44 74 56 101 42 94 81 170 115 225 91 147 149 259 190 367 38 99 34 104 -99 101 -56 -1 -108 2 -115 6 -7 5 -38 5 -68 1 -53 -6 -60 -11 -132 -83 -111 -111 -195 -259 -277 -482 -15 -41 -38 -92 -51 -112 -12 -21 -23 -43 -23 -49 0 -6 -9 -22 -20 -36 l-20 -26 0 95 c0 59 6 112 15 138 20 57 19 73 -9 139 -14 31 -39 103 -57 160 -27 89 -31 113 -25 167 6 56 4 66 -14 84 -21 21 -72 26 -100 11z"/>
 <path d="M13126 7585 c-32 -19 -60 -35 -62 -35 -3 0 -22 -11 -44 -25 -22 -14 -44 -25 -49 -25 -6 0 -27 -11 -47 -25 -20 -14 -46 -25 -57 -25 -18 0 -19 -5 -13 -62 3 -35 13 -182 21 -328 15 -263 29 -412 41 -432 4 -6 13 -87 20 -182 8 -94 23 -211 33 -261 27 -121 26 -143 -5 -176 -31 -32 -27 -42 27 -70 33 -16 51 -19 97 -13 36 4 96 0 161 -10 112 -18 188 -14 386 21 104 18 124 27 184 81 91 84 130 182 79 196 -13 3 -75 3 -138 0 -99 -6 -126 -4 -193 15 -53 14 -106 21 -170 21 l-92 0 -26 148 c-15 81 -25 149 -23 151 3 4 65 -7 196 -35 115 -24 145 -20 222 31 38 25 71 45 73 45 7 0 86 64 106 85 28 31 47 81 47 126 l0 41 -57 -8 c-95 -14 -173 -9 -238 15 -34 13 -93 25 -135 27 -80 5 -75 7 -183 -69 -14 -10 -31 -16 -36 -13 -5 4 -15 31 -21 62 -15 72 -19 319 -5 333 7 7 34 1 85 -20 107 -44 189 -69 232 -69 57 0 143 37 210 91 34 27 65 49 69 49 14 0 46 55 53 92 10 54 -8 67 -88 61 -54 -5 -69 -2 -93 15 -28 19 -87 46 -248 113 -44 18 -89 40 -100 50 -70 59 -137 64 -219 14z"/>
 <path d="M15070 7604 c-19 -9 -46 -25 -58 -37 -46 -43 -139 -194 -204 -332 -65 -138 -75 -160 -118 -260 -20 -46 -23 -48 -31 -27 -5 12 -13 61 -19 109 -6 47 -18 120 -26 162 -8 42 -19 126 -23 187 -6 91 -11 116 -30 142 -12 18 -31 32 -41 32 -21 0 -67 -43 -110 -100 -14 -19 -49 -62 -77 -96 -48 -56 -53 -66 -53 -110 0 -27 9 -98 20 -159 31 -172 128 -783 135 -855 3 -36 11 -84 17 -106 9 -39 8 -45 -21 -84 -17 -24 -31 -49 -31 -57 0 -21 50 -63 75 -63 13 0 60 -11 106 -24 113 -33 233 -49 325 -44 l76 3 104 107 c58 59 111 123 119 142 17 40 45 235 45 311 0 83 -53 181 -150 274 -44 42 -80 82 -80 88 0 6 16 34 35 62 19 28 41 67 49 88 8 21 28 75 45 119 38 102 112 258 145 307 38 55 58 96 51 106 -2 5 -38 25 -77 44 -47 22 -77 43 -83 58 -12 30 -64 35 -115 13z m-216 -1182 c85 -76 179 -189 170 -204 -4 -5 -23 -7 -43 -4 -20 3 -65 10 -101 15 -36 5 -86 18 -112 29 l-48 21 7 48 c9 61 9 86 -1 146 l-7 48 30 -16 c17 -8 64 -46 105 -83z"/>
 <path d="M5340 6920 l0 -450 808 0 807 0 165 165 165 165 -798 0 -797 0 0 285 0 285 -175 0 -175 0 0 -450z"/>
 </g>
<g id="layer104" fill="#fbb700" stroke="none">
 <path d="M4877 9742 c-92 -92 -167 -171 -167 -175 0 -4 142 -7 315 -7 l315 0 2 -822 3 -823 805 -3 805 -2 162 162 c90 90 163 168 163 175 0 10 -162 13 -795 13 l-795 0 0 825 0 825 -323 0 -322 0 -168 -168z"/>
 <path d="M3698 9723 l-168 -168 0 -1543 c0 -1234 3 -1542 13 -1542 7 0 83 71 170 158 l157 157 -2 1553 -3 1552 -167 -167z"/>
 <path d="M1873 9720 l-163 -159 0 -1546 c0 -1237 3 -1545 13 -1545 7 0 81 69 165 153 l152 152 -2 1552 -3 1552 -162 -159z"/>
 <path d="M7833 7563 c-100 -83 -160 -149 -174 -191 -15 -47 -6 -459 16 -692 9 -91 20 -284 24 -430 7 -220 6 -268 -5 -281 -20 -23 -17 -69 6 -94 l21 -22 62 19 c86 26 234 101 282 143 148 130 156 138 190 208 19 39 35 74 35 78 0 3 12 32 26 63 l25 56 56 -68 c31 -37 99 -111 152 -165 l96 -98 51 7 c59 7 59 8 113 -86 44 -77 45 -77 180 -27 l86 32 36 73 c53 109 63 173 44 307 -43 311 -64 505 -70 640 -4 116 -13 180 -37 284 -28 119 -30 140 -20 178 26 94 7 123 -78 123 l-54 0 -104 -104 c-77 -77 -103 -109 -99 -123 3 -10 11 -76 17 -148 14 -156 54 -497 76 -650 8 -60 14 -130 12 -155 l-3 -45 -45 59 c-25 32 -88 113 -141 180 -53 67 -100 132 -104 146 -5 14 -7 56 -6 94 l2 68 -58 -5 c-75 -7 -161 -32 -193 -55 -45 -34 -95 -140 -151 -320 -29 -95 -33 -102 -48 -87 -14 14 -16 72 -16 528 0 462 -2 516 -17 550 -17 36 -63 67 -103 67 -8 0 -45 -25 -82 -57z"/>
 <path d="M10687 7596 c-31 -13 -67 -31 -80 -40 -12 -9 -38 -28 -57 -41 -43 -30 -43 -30 -85 -85 -32 -43 -35 -54 -56 -206 l-22 -161 -111 2 c-79 2 -122 -2 -149 -13 -35 -13 -39 -13 -52 4 -32 42 -174 344 -195 416 -32 108 -43 118 -135 118 -41 0 -87 -5 -102 -11 -81 -34 -114 -51 -119 -62 -13 -36 82 -338 128 -407 16 -24 95 -187 151 -313 15 -32 29 -74 32 -95 12 -69 27 -107 100 -257 137 -282 158 -329 161 -363 4 -45 63 -171 85 -183 25 -13 91 -11 189 6 141 25 186 43 229 91 41 47 58 107 81 284 7 47 18 128 27 180 8 52 19 124 24 160 28 211 67 421 84 446 9 14 21 83 30 176 8 84 25 192 37 241 l21 87 -23 25 c-32 34 -112 34 -193 1z m-317 -796 c0 -33 -7 -76 -15 -96 -8 -19 -12 -41 -8 -49 7 -21 -15 -45 -34 -38 -13 5 -15 1 -9 -22 6 -25 5 -27 -8 -16 -24 20 -76 122 -76 148 0 13 -9 40 -20 60 -30 57 -27 62 43 66 34 2 77 4 95 5 l32 2 0 -60z"/>
 <path d="M11480 7611 c-8 -5 -28 -15 -43 -22 -16 -7 -42 -32 -59 -55 -16 -23 -40 -46 -54 -53 -13 -6 -24 -17 -24 -25 0 -8 -10 -32 -22 -53 -21 -35 -23 -49 -22 -198 2 -158 14 -273 52 -490 20 -110 39 -236 67 -438 8 -59 15 -136 15 -172 0 -35 5 -76 10 -90 7 -19 7 -38 -1 -64 -8 -28 -8 -44 0 -59 10 -19 17 -20 64 -15 83 9 145 69 238 230 15 25 30 67 33 92 3 26 14 69 24 96 12 34 16 59 11 78 -9 33 -3 53 16 61 16 6 148 -130 271 -277 46 -56 108 -129 136 -161 29 -33 58 -72 65 -88 11 -27 15 -28 55 -22 54 8 87 30 115 80 29 50 73 183 73 218 0 21 -29 57 -122 157 -68 71 -130 142 -138 157 -48 84 -74 122 -115 161 -55 55 -57 77 -11 145 19 28 44 74 56 101 42 94 81 170 115 225 91 147 149 259 190 367 38 99 34 104 -99 101 -56 -1 -108 2 -115 6 -7 5 -36 5 -66 1 -46 -5 -61 -13 -114 -61 -101 -92 -225 -296 -282 -464 -23 -70 -85 -201 -112 -240 -16 -24 -17 -22 -17 72 0 59 6 112 15 138 20 57 19 73 -9 139 -14 31 -39 103 -57 160 -27 89 -31 113 -25 167 6 56 4 66 -14 84 -21 21 -72 26 -100 11z"/>
 <path d="M13126 7585 c-32 -19 -60 -35 -62 -35 -3 0 -22 -11 -44 -25 -22 -14 -44 -25 -49 -25 -6 0 -27 -11 -47 -25 -20 -14 -46 -25 -57 -25 -18 0 -19 -5 -13 -62 3 -35 13 -182 21 -328 15 -263 29 -412 41 -432 4 -6 13 -87 20 -182 8 -94 23 -211 33 -261 27 -121 26 -143 -5 -176 -31 -32 -27 -42 27 -69 32 -17 51 -19 102 -14 39 4 99 0 162 -10 107 -18 184 -14 380 21 104 18 124 27 184 81 91 84 130 182 79 196 -13 3 -75 3 -138 0 -99 -6 -126 -4 -193 15 -53 14 -106 21 -170 21 l-92 0 -26 148 c-15 81 -25 149 -23 151 3 4 65 -7 196 -35 115 -24 145 -20 222 31 38 25 71 45 73 45 7 0 86 64 106 85 28 31 47 81 47 126 l0 41 -57 -8 c-95 -14 -173 -9 -238 15 -34 13 -93 25 -135 27 -80 5 -75 7 -183 -69 -14 -10 -31 -16 -36 -13 -5 4 -15 31 -21 62 -15 72 -19 319 -5 333 7 7 34 1 85 -20 107 -44 189 -69 232 -69 57 0 143 37 210 91 34 27 65 49 69 49 14 0 46 55 53 92 10 54 -8 67 -88 61 -54 -5 -69 -2 -93 15 -28 19 -87 46 -248 113 -44 18 -89 40 -100 50 -70 59 -137 64 -219 14z"/>
 <path d="M15070 7604 c-19 -9 -46 -25 -58 -37 -46 -43 -139 -194 -204 -332 -65 -138 -75 -160 -118 -260 -20 -46 -23 -48 -31 -27 -5 12 -13 61 -19 109 -6 47 -18 120 -26 162 -8 42 -19 126 -23 187 -6 91 -11 116 -30 142 -12 18 -31 32 -41 32 -21 0 -67 -43 -110 -100 -14 -19 -49 -62 -77 -96 -48 -56 -53 -66 -53 -110 0 -27 9 -98 20 -159 31 -172 128 -783 135 -855 3 -36 11 -84 17 -106 9 -39 8 -45 -21 -84 -17 -24 -31 -49 -31 -57 0 -21 50 -63 75 -63 13 0 60 -11 106 -24 113 -33 233 -49 325 -44 l76 3 104 107 c58 59 111 123 119 142 17 40 45 235 45 311 0 83 -53 181 -150 274 -44 42 -80 82 -80 88 0 6 16 35 36 64 20 30 42 70 49 89 7 19 27 71 43 115 40 106 113 261 146 308 37 54 58 96 51 106 -2 5 -38 25 -77 44 -47 22 -77 43 -83 58 -12 30 -64 35 -115 13z m-216 -1182 c85 -76 179 -189 170 -204 -4 -5 -23 -7 -43 -4 -20 3 -65 10 -101 15 -36 5 -86 18 -112 29 l-48 21 7 48 c9 61 9 86 -1 146 l-7 48 30 -16 c17 -8 64 -46 105 -83z"/>
 <path d="M5340 6920 l0 -450 808 0 807 0 165 165 165 165 -798 0 -797 0 0 285 0 285 -175 0 -175 0 0 -450z"/>
 </g>
<g id="layer105" fill="#cacaca" stroke="none">
 <path d="M4877 9742 c-92 -92 -167 -171 -167 -175 0 -4 142 -7 315 -7 l315 0 2 -822 3 -823 805 -3 805 -2 162 162 c90 90 163 168 163 175 0 10 -162 13 -795 13 l-795 0 0 825 0 825 -323 0 -322 0 -168 -168z"/>
 <path d="M5340 6920 l0 -450 808 0 807 0 165 165 165 165 -798 0 -797 0 0 285 0 285 -175 0 -175 0 0 -450z"/>
 </g>

</svg>